HIERARCHY
ROOT Hips
{
	OFFSET -0.001795 -0.223333 0.028219
	CHANNELS 6 Xposition Yposition Zposition Zrotation Yrotation Xrotation 
	JOINT LeftUpLeg
	{
		OFFSET 0.069520 -0.091406 -0.006815
		CHANNELS 3 Zrotation Yrotation Xrotation
		JOINT LeftLeg
		{
			OFFSET 0.034277 -0.375199 -0.004496
			CHANNELS 3 Zrotation Yrotation Xrotation
			JOINT LeftFoot
			{
				OFFSET -0.013596 -0.397961 -0.043693
				CHANNELS 3 Zrotation Yrotation Xrotation
				JOINT LeftToe
				{
					OFFSET 0.026358 -0.055791 0.119288
					CHANNELS 3 Zrotation Yrotation Xrotation
					End Site
					{
						OFFSET 0.000000 0.000000 0.000000
					}
				}
			}
		}
	}
	JOINT RightUpLeg
	{
		OFFSET -0.067670 -0.090522 -0.004320
		CHANNELS 3 Zrotation Yrotation Xrotation
		JOINT RightLeg
		{
			OFFSET -0.038290 -0.382569 -0.008850
			CHANNELS 3 Zrotation Yrotation Xrotation
			JOINT RightFoot
			{
				OFFSET 0.015774 -0.398415 -0.042312
				CHANNELS 3 Zrotation Yrotation Xrotation
				JOINT RightToe
				{
					OFFSET -0.025372 -0.048144 0.123348
					CHANNELS 3 Zrotation Yrotation Xrotation
					End Site
					{
						OFFSET 0.000000 0.000000 0.000000
					}
				}
			}
		}
	}
	JOINT Spine
	{
		OFFSET -0.002533 0.108963 -0.026696
		CHANNELS 3 Zrotation Yrotation Xrotation
		JOINT Spine1
		{
			OFFSET 0.005487 0.135180 0.001092
			CHANNELS 3 Zrotation Yrotation Xrotation
			JOINT Spine2
			{
				OFFSET 0.001457 0.052922 0.025425
				CHANNELS 3 Zrotation Yrotation Xrotation
				JOINT Neck
				{
					OFFSET -0.002778 0.213870 -0.042857
					CHANNELS 3 Zrotation Yrotation Xrotation
					JOINT Head
					{
						OFFSET 0.005152 0.064970 0.051349
						CHANNELS 3 Zrotation Yrotation Xrotation
						End Site
						{
							OFFSET 0.000000 0.000000 0.000000
						}
					}
				}
				JOINT LeftShoulder
				{
					OFFSET 0.078845 0.121749 -0.034090
					CHANNELS 3 Zrotation Yrotation Xrotation
					JOINT LeftArm
					{
						OFFSET 0.090977 0.030469 -0.008868
						CHANNELS 3 Zrotation Yrotation Xrotation
						JOINT LeftForeArm
						{
							OFFSET 0.259612 -0.012772 -0.027456
							CHANNELS 3 Zrotation Yrotation Xrotation
							JOINT LeftHand
							{
								OFFSET 0.249234 0.008986 -0.001171
								CHANNELS 3 Zrotation Yrotation Xrotation
								End Site
								{
									OFFSET 0.000000 0.000000 0.000000
								}
							}
						}
					}
				}
				JOINT RightShoulder
				{
					OFFSET -0.081759 0.118833 -0.038615
					CHANNELS 3 Zrotation Yrotation Xrotation
					JOINT RightArm
					{
						OFFSET -0.096012 0.032551 -0.009143
						CHANNELS 3 Zrotation Yrotation Xrotation
						JOINT RightForeArm
						{
							OFFSET -0.253742 -0.013329 -0.021401
							CHANNELS 3 Zrotation Yrotation Xrotation
							JOINT RightHand
							{
								OFFSET -0.255298 0.007772 -0.005559
								CHANNELS 3 Zrotation Yrotation Xrotation
								End Site
								{
									OFFSET 0.000000 0.000000 0.000000
								}
							}
						}
					}
				}
			}
		}
	}
}
MOTION
Frames: 7
Frame Time: 0.050000
-0.090476 0.259630 0.774295 -8.292672 30.645913 -42.155948 27.331216 -23.693851 49.394693 -7.366388 -8.928252 105.351758 -16.216232 -28.372986 9.305425 0.000000 0.000000 0.000000 -3.589329 -11.028342 -70.054088 -37.908901 61.595681 112.027167 -4.463417 62.256011 -21.076937 0.000000 0.000000 0.000000 12.602813 -28.896483 81.503128 -79.054747 -12.698819 -100.069157 31.184661 -73.000789 53.452162 -5.587048 -4.518237 -4.068404 0.000000 0.000000 0.000000 -37.958708 -6.955010 43.174068 16.896621 -15.242292 -1.154277 132.023388 -16.952695 -62.891692 0.000000 0.000000 0.000000 15.387174 16.429789 -17.099788 13.840765 -7.990199 -1.545218 167.160553 70.451805 135.143724 0.000000 0.000000 0.000000 
-0.106978 0.278046 0.779493 -7.797906 32.533830 -37.232532 34.352581 -22.140545 36.471278 -8.827633 -11.137588 107.443071 -17.266742 -26.000874 14.184959 0.000000 0.000000 0.000000 1.039140 -8.779044 -73.461499 -40.972729 63.227636 110.016431 2.360337 59.578821 -11.978798 0.000000 0.000000 0.000000 5.268008 -26.078077 85.359856 -40.637669 -2.607511 -104.506203 14.454074 -36.172282 69.908766 -1.080562 -4.601379 1.752227 0.000000 0.000000 0.000000 -41.726835 -12.079057 30.752777 14.671131 -11.956829 0.964454 131.480573 -28.427682 -84.135028 0.000000 0.000000 0.000000 24.700179 13.818160 -1.556896 9.829067 3.311271 -3.333421 -169.551007 72.450420 179.360933 0.000000 0.000000 0.000000 
-0.121869 0.297658 0.788871 -7.790632 33.262510 -32.935404 40.415989 -22.052480 29.330910 -8.879836 -11.503334 105.188473 -16.571901 -26.274923 12.271055 0.000000 0.000000 0.000000 5.753022 -5.808174 -77.470043 -30.621562 59.609032 120.923584 8.047733 43.283949 -0.781424 0.000000 0.000000 0.000000 -0.097184 -23.059401 87.863419 -22.799921 3.323463 -95.611693 16.024083 -16.165347 58.637463 2.908196 -5.597020 10.683215 0.000000 0.000000 0.000000 -42.173892 -14.987591 23.959704 11.390380 -11.149317 0.836991 128.924151 -40.241842 -89.847887 0.000000 0.000000 0.000000 30.717303 12.181085 4.914777 6.726439 7.179998 -2.786666 -154.122927 73.166029 -151.775195 0.000000 0.000000 0.000000 
-0.130397 0.312957 0.803563 -6.652784 33.713219 -28.303963 40.286344 -19.967901 25.929858 -10.639278 -9.556986 103.571325 -12.598261 -24.425575 5.640179 0.000000 0.000000 0.000000 8.124376 -4.423429 -80.512912 -21.392777 52.825043 129.372367 5.041943 24.210306 0.269011 0.000000 0.000000 0.000000 -0.065185 -21.473976 82.372118 -19.031113 2.994697 -83.567912 16.328494 -10.277956 49.506182 4.291256 -7.256047 9.842472 0.000000 0.000000 0.000000 -40.694189 -16.865798 20.077112 7.363191 -11.426620 -0.013325 130.136524 -48.257374 -94.812282 0.000000 0.000000 0.000000 32.644431 12.311601 6.508397 4.663234 9.349207 -2.084710 -141.865090 75.364060 -134.855960 0.000000 0.000000 0.000000 
-0.130341 0.321339 0.824002 -7.023615 33.998670 -24.848609 39.825955 -21.818143 29.395371 -11.314696 -5.714412 95.273154 -7.345950 -20.028111 -2.956261 0.000000 0.000000 0.000000 7.883020 -5.175396 -82.377799 -13.357699 42.573222 136.247173 1.673349 8.094533 -0.225107 0.000000 0.000000 0.000000 3.269903 -21.114546 74.440566 -17.802509 1.584816 -87.351749 13.270053 -9.678373 56.960256 2.714838 -4.472266 5.176567 0.000000 0.000000 0.000000 -40.297555 -17.056543 18.695450 4.845727 -14.940754 -1.220822 128.172164 -54.101042 -98.743376 0.000000 0.000000 0.000000 34.534139 11.724851 8.008872 0.695197 11.792285 -1.997043 -120.736501 75.751246 -113.102898 0.000000 0.000000 0.000000 
-0.123728 0.321698 0.850461 -6.750635 32.971685 -24.709110 39.680069 -24.233203 34.274685 -12.376968 -1.641385 89.998438 -4.987548 -17.890110 -7.026208 0.000000 0.000000 0.000000 6.192864 -5.668771 -80.437455 -9.259680 35.370820 141.007123 0.623287 -0.116678 2.077691 0.000000 0.000000 0.000000 9.943326 -22.486938 67.538182 -40.604931 -5.540277 -86.997883 19.164694 -29.694376 58.610459 -0.684060 -4.345502 -4.387844 0.000000 0.000000 0.000000 -42.472828 -15.244208 26.546188 4.790082 -19.574026 -3.189653 125.737816 -50.409358 -90.906668 0.000000 0.000000 0.000000 27.178853 13.512322 0.730269 3.540699 12.056529 -2.469615 -124.258902 79.104243 -122.143883 0.000000 0.000000 0.000000 
-0.116052 0.320343 0.877202 -6.645568 32.946809 -25.826746 42.513001 -23.850289 30.166799 -13.725245 -0.649696 94.458848 -8.678351 -19.492963 1.123871 0.000000 0.000000 0.000000 2.287382 -8.356024 -76.223933 -7.383338 29.950525 143.195622 0.977358 -2.363481 5.154959 0.000000 0.000000 0.000000 13.462279 -22.672417 63.604666 -55.632526 -16.924662 -94.516508 22.302820 -45.285668 72.055357 -1.598844 -10.974088 -22.059958 0.000000 0.000000 0.000000 -38.939991 -14.776534 28.668097 3.053350 -26.224670 -5.744687 127.304128 -49.684992 -90.884771 0.000000 0.000000 0.000000 22.070412 13.421620 -1.742232 5.024066 17.466523 -3.372204 -118.117513 78.249497 -120.580068 0.000000 0.000000 0.000000 
